<?xml version="1.0" encoding="UTF-8"?>
<svg xmlns="http://www.w3.org/2000/svg" version="1.1" viewBox="250 1160 790 790">
  <!-- Generator: Adobe Illustrator 28.7.7, SVG Export Plug-In . SVG Version: 1.2.0 Build 194)  -->
  <g>
    <g id="Objects">
      <g>
        <path d="M1040.065,1555.776c0,217.8-176.559,394.36-394.36,394.36-73.272,0-141.88-19.98-200.661-54.795-38.382,17.324-79.525,28.58-121.388,33.096-13.961,1.503-24.36-12.562-18.926-25.512,12.926-30.78,23.547-70.549,28.975-105.931-51.635-66.68-82.359-150.363-82.359-241.218,0-217.8,176.559-394.36,394.36-394.36s394.36,176.559,394.36,394.36Z" style="fill: #0e183a;"/>
        <g>
          <path d="M913.317,1503.659c-.907-9.688-5.02-18.414-11.264-25.129v-45.362c0-5.604-4.536-10.141-10.141-10.141-2.795,0-5.334,1.138-7.172,2.969-1.831,1.831-2.969,4.37-2.969,7.172v33.145c-2.313-.62-4.701-1.059-7.151-1.288-.647-.061-1.306-.122-1.971-.183-5.356-30.768-30.742-54.54-62.302-57.492-35.922-3.363-90.162-6.666-164.638-6.666-71.606,0-127.059,3.533-164.307,7.011-31.467,2.933-56.819,26.5-62.334,57.119-.771.07-1.531.141-2.277.211-2.451.229-4.839.667-7.151,1.288v-33.145c0-2.802-1.138-5.341-2.969-7.172-1.838-1.831-4.377-2.969-7.172-2.969-5.604,0-10.141,4.536-10.141,10.141v45.362c-6.245,6.716-10.357,15.442-11.264,25.129-1.276,13.63-2.296,31.116-2.296,52.126,0,21.544.929,38.801,2.123,52.07,1.852,20.587,18.083,36.963,38.663,38.885.728.067,1.469.135,2.222.203,5.511,30.638,30.757,54.316,62.253,57.267,35.922,3.363,90.162,6.659,164.652,6.659,71.647,0,127.126-3.533,164.381-7.011,31.35-2.926,56.615-26.405,62.21-56.887.857-.077,1.703-.154,2.529-.231,20.58-1.921,36.811-18.298,38.663-38.885,1.193-13.269,2.122-30.526,2.122-52.07,0-21.01-1.02-38.496-2.296-52.126ZM840.807,1637.808c-1.672,17.859-15.863,32.037-33.742,33.709-33.573,3.133-88.823,6.869-161.363,6.869-60.115,0-116.007-2.254-161.62-6.517-17.94-1.678-32.139-15.991-33.756-34.027-2.22-24.613-3.343-52.224-3.343-82.055,0-28.829,1.218-56.427,3.614-82.035,1.672-17.859,15.897-32.044,33.824-33.715,33.553-3.133,88.775-6.869,161.281-6.869,75.964,0,129.82,3.553,161.613,6.524,17.934,1.678,32.132,15.89,33.749,33.797,2.227,24.681,3.357,52.373,3.357,82.299,0,28.802-1.218,56.4-3.614,82.021Z" style="fill: #fff;"/>
          <rect x="504.934" y="1505.144" width="56.667" height="88.149" rx="28.334" ry="28.334" style="fill: #fff;"/>
          <rect x="729.803" y="1505.144" width="56.667" height="88.149" rx="28.334" ry="28.334" style="fill: #fff;"/>
          <path d="M668.575,1582.699h-45.746c-4.968,0-8.553,4.828-7.042,9.561,4.044,12.663,15.907,21.833,29.912,21.833,8.669,0,16.519-3.512,22.204-9.197,3.499-3.495,6.175-7.812,7.715-12.637,1.511-4.732-2.075-9.56-7.042-9.56Z" style="fill: #fff;"/>
        </g>
      </g>
    </g>
</g>
</svg>